<svg width="21" height="18" viewBox="0 0 21 18" fill="none" xmlns="http://www.w3.org/2000/svg">
<path d="M7.71429 9C10.2013 9 12.2143 6.98705 12.2143 4.5C12.2143 2.01295 10.2013 0 7.71429 0C5.22723 0 3.21429 2.01295 3.21429 4.5C3.21429 6.98705 5.22723 9 7.71429 9ZM10.8 10.2857H10.4665C9.6308 10.6875 8.70268 10.9286 7.71429 10.9286C6.72589 10.9286 5.80179 10.6875 4.96205 10.2857H4.62857C2.07321 10.2857 0 12.3589 0 14.9143V16.0714C0 17.1362 0.863839 18 1.92857 18H13.5C14.5647 18 15.4286 17.1362 15.4286 16.0714V14.9143C15.4286 12.3589 13.3554 10.2857 10.8 10.2857Z" fill="white"/>
<path d="M17.7429 9.25714H18.9C19.2134 9.25714 19.4846 9.14263 19.7136 8.91362C19.9427 8.6846 20.0572 8.41038 20.0572 8.09096C20.0572 7.77154 19.9427 7.50033 19.7136 7.27734C19.4846 7.05435 19.2134 6.94286 18.9 6.94286H17.7429V5.78571C17.7429 5.46027 17.6284 5.18605 17.3994 4.96306C17.1703 4.74007 16.8961 4.62857 16.5767 4.62857C16.2573 4.62857 15.9861 4.74007 15.7631 4.96306C15.5401 5.18605 15.4286 5.46027 15.4286 5.78571V6.94286H14.2715C13.946 6.94286 13.6718 7.05435 13.4488 7.27734C13.2258 7.50033 13.1143 7.77154 13.1143 8.09096C13.1143 8.41038 13.2258 8.6846 13.4488 8.91362C13.6718 9.14263 13.946 9.25714 14.2715 9.25714H15.4286V10.4143C15.4286 10.7397 15.5401 11.014 15.7631 11.2369C15.9861 11.4599 16.2573 11.5714 16.5767 11.5714C16.8961 11.5714 17.1703 11.4599 17.3994 11.2369C17.6284 11.014 17.7429 10.7397 17.7429 10.4143V9.25714Z" fill="white"/>
</svg>
