<svg width="33" height="34" viewBox="0 0 33 34" fill="none" xmlns="http://www.w3.org/2000/svg">
<path d="M16.6666 0.666626C18.8325 0.666626 20.9097 1.52704 22.4413 3.05859C23.9728 4.59013 24.8333 6.66736 24.8333 8.83329C24.8333 10.9992 23.9728 13.0765 22.4413 14.608C20.9097 16.1395 18.8325 17 16.6666 17C14.5006 17 12.4234 16.1395 10.8919 14.608C9.36033 13.0765 8.49992 10.9992 8.49992 8.83329C8.49992 6.66736 9.36033 4.59013 10.8919 3.05859C12.4234 1.52704 14.5006 0.666626 16.6666 0.666626ZM16.6666 21.0833C25.6908 21.0833 32.9999 24.7379 32.9999 29.25V33.3333H0.333252V29.25C0.333252 24.7379 7.64242 21.0833 16.6666 21.0833Z" fill="white"/>
</svg>
