<svg width="35" height="25" viewBox="0 0 35 25" fill="none" xmlns="http://www.w3.org/2000/svg">
<path d="M10.5 12.25C13.8852 12.25 16.625 9.51016 16.625 6.125C16.625 2.73984 13.8852 0 10.5 0C7.11484 0 4.375 2.73984 4.375 6.125C4.375 9.51016 7.11484 12.25 10.5 12.25ZM14.7 14H14.2461C13.1086 14.5469 11.8453 14.875 10.5 14.875C9.15469 14.875 7.89687 14.5469 6.75391 14H6.3C2.82187 14 0 16.8219 0 20.3V21.875C0 23.3242 1.17578 24.5 2.625 24.5H18.375C19.8242 24.5 21 23.3242 21 21.875V20.3C21 16.8219 18.1781 14 14.7 14ZM26.25 12.25C29.1484 12.25 31.5 9.89844 31.5 7C31.5 4.10156 29.1484 1.75 26.25 1.75C23.3516 1.75 21 4.10156 21 7C21 9.89844 23.3516 12.25 26.25 12.25ZM28.875 14H28.6672C27.907 14.2625 27.1031 14.4375 26.25 14.4375C25.3969 14.4375 24.593 14.2625 23.8328 14H23.625C22.5094 14 21.4812 14.3227 20.5789 14.8422C21.9133 16.2805 22.75 18.1891 22.75 20.3V22.4C22.75 22.5203 22.7227 22.6352 22.7172 22.75H32.375C33.8242 22.75 35 21.5742 35 20.125C35 16.7398 32.2602 14 28.875 14Z" fill="white"/>
</svg>
