<svg width="328" height="482" viewBox="0 0 328 482" fill="none" xmlns="http://www.w3.org/2000/svg">
<rect width="328" height="482" rx="10" fill="#EBEF2E"/>
<path d="M120.586 313.8C120.586 305.933 121.786 298.667 124.186 292C126.719 285.333 129.786 279.333 133.386 274C136.986 268.667 141.719 262.4 147.586 255.2C153.586 247.733 158.319 241.4 161.786 236.2C165.386 231 168.386 225.067 170.786 218.4C173.319 211.6 174.586 204.267 174.586 196.4C174.586 191.733 173.919 188.133 172.586 185.6C171.253 182.933 168.853 181.6 165.386 181.6C159.653 181.6 156.786 186.733 156.786 197V218H120.586L120.186 207.4C120.186 194.333 121.519 183.6 124.186 175.2C126.853 166.8 131.519 160.4 138.186 156C144.853 151.6 154.053 149.4 165.786 149.4C180.186 149.4 191.319 153.467 199.186 161.6C207.053 169.6 210.986 181 210.986 195.8C210.986 205.267 209.653 213.867 206.986 221.6C204.453 229.2 201.253 235.867 197.386 241.6C193.653 247.333 188.653 254.067 182.386 261.8C177.853 267.267 174.053 272.133 170.986 276.4C168.053 280.667 165.386 285.067 162.986 289.6H209.786V322H120.586V313.8Z" fill="white"/>
<path d="M292.317 462.36C292.317 460.787 292.557 459.333 293.037 458C293.544 456.667 294.157 455.467 294.877 454.4C295.597 453.333 296.544 452.08 297.717 450.64C298.917 449.147 299.864 447.88 300.557 446.84C301.277 445.8 301.877 444.613 302.357 443.28C302.864 441.92 303.117 440.453 303.117 438.88C303.117 437.947 302.984 437.227 302.717 436.72C302.451 436.187 301.971 435.92 301.277 435.92C300.131 435.92 299.557 436.947 299.557 439V443.2H292.317L292.237 441.08C292.237 438.467 292.504 436.32 293.037 434.64C293.571 432.96 294.504 431.68 295.837 430.8C297.171 429.92 299.011 429.48 301.357 429.48C304.237 429.48 306.464 430.293 308.037 431.92C309.611 433.52 310.397 435.8 310.397 438.76C310.397 440.653 310.131 442.373 309.597 443.92C309.091 445.44 308.451 446.773 307.677 447.92C306.931 449.067 305.931 450.413 304.677 451.96C303.771 453.053 303.011 454.027 302.397 454.88C301.811 455.733 301.277 456.613 300.797 457.52H310.157V464H292.317V462.36Z" fill="white"/>
<path d="M18.3172 48.36C18.3172 46.7867 18.5572 45.3333 19.0372 44C19.5439 42.6667 20.1572 41.4667 20.8772 40.4C21.5972 39.3333 22.5439 38.08 23.7172 36.64C24.9172 35.1467 25.8639 33.88 26.5572 32.84C27.2772 31.8 27.8772 30.6133 28.3572 29.28C28.8639 27.92 29.1172 26.4533 29.1172 24.88C29.1172 23.9467 28.9839 23.2267 28.7172 22.72C28.4505 22.1867 27.9705 21.92 27.2772 21.92C26.1305 21.92 25.5572 22.9467 25.5572 25V29.2H18.3172L18.2372 27.08C18.2372 24.4667 18.5039 22.32 19.0372 20.64C19.5705 18.96 20.5039 17.68 21.8372 16.8C23.1705 15.92 25.0105 15.48 27.3572 15.48C30.2372 15.48 32.4639 16.2933 34.0372 17.92C35.6105 19.52 36.3972 21.8 36.3972 24.76C36.3972 26.6533 36.1305 28.3733 35.5972 29.92C35.0905 31.44 34.4505 32.7733 33.6772 33.92C32.9305 35.0667 31.9305 36.4133 30.6772 37.96C29.7705 39.0533 29.0105 40.0267 28.3972 40.88C27.8105 41.7333 27.2772 42.6133 26.7972 43.52H36.1572V50H18.3172V48.36Z" fill="white"/>
</svg>
