<svg width="328" height="482" viewBox="0 0 328 482" fill="none" xmlns="http://www.w3.org/2000/svg">
<rect width="328" height="482" rx="10" fill="#EBEF2E"/>
<path d="M161.786 324C146.719 324 135.719 320.067 128.786 312.2C121.853 304.2 118.386 292.067 118.386 275.8V257.8H153.586V275.8C153.586 281 154.253 285.067 155.586 288C156.919 290.8 159.586 292.2 163.586 292.2C166.386 292.2 168.386 291.2 169.586 289.2C170.919 287.2 171.719 284.867 171.986 282.2C172.253 279.4 172.386 275.4 172.386 270.2V266C172.386 251.2 167.519 243.8 157.786 243.8C156.053 243.8 154.919 243.867 154.386 244V213.2C160.519 213.2 165.119 211.867 168.186 209.2C171.253 206.4 172.786 202 172.786 196C172.786 186.267 169.986 181.4 164.386 181.4C160.919 181.4 158.653 182.267 157.586 184C156.653 185.733 155.986 187.933 155.586 190.6C155.319 193.267 155.119 195.2 154.986 196.4V201.6H119.386L119.186 195.6C119.319 179.867 123.053 168.333 130.386 161C137.719 153.533 148.986 149.8 164.186 149.8C193.386 149.8 207.986 165.067 207.986 195.6C207.986 204.533 206.786 211.667 204.386 217C201.986 222.2 197.853 225.867 191.986 228C196.786 230.4 200.319 233.4 202.586 237C204.986 240.467 206.519 244.733 207.186 249.8C207.986 254.867 208.386 261.667 208.386 270.2C208.386 287.933 204.653 301.333 197.186 310.4C189.853 319.467 178.053 324 161.786 324Z" fill="white"/>
<path d="M300.557 464.4C297.544 464.4 295.344 463.613 293.957 462.04C292.571 460.44 291.877 458.013 291.877 454.76V451.16H298.917V454.76C298.917 455.8 299.051 456.613 299.317 457.2C299.584 457.76 300.117 458.04 300.917 458.04C301.477 458.04 301.877 457.84 302.117 457.44C302.384 457.04 302.544 456.573 302.597 456.04C302.651 455.48 302.677 454.68 302.677 453.64V452.8C302.677 449.84 301.704 448.36 299.757 448.36C299.411 448.36 299.184 448.373 299.077 448.4V442.24C300.304 442.24 301.224 441.973 301.837 441.44C302.451 440.88 302.757 440 302.757 438.8C302.757 436.853 302.197 435.88 301.077 435.88C300.384 435.88 299.931 436.053 299.717 436.4C299.531 436.747 299.397 437.187 299.317 437.72C299.264 438.253 299.224 438.64 299.197 438.88V439.92H292.077L292.037 438.72C292.064 435.573 292.811 433.267 294.277 431.8C295.744 430.307 297.997 429.56 301.037 429.56C306.877 429.56 309.797 432.613 309.797 438.72C309.797 440.507 309.557 441.933 309.077 443C308.597 444.04 307.771 444.773 306.597 445.2C307.557 445.68 308.264 446.28 308.717 447C309.197 447.693 309.504 448.547 309.637 449.56C309.797 450.573 309.877 451.933 309.877 453.64C309.877 457.187 309.131 459.867 307.637 461.68C306.171 463.493 303.811 464.4 300.557 464.4Z" fill="white"/>
<path d="M26.5572 50.4C23.5439 50.4 21.3439 49.6133 19.9572 48.04C18.5705 46.44 17.8772 44.0133 17.8772 40.76V37.16H24.9172V40.76C24.9172 41.8 25.0505 42.6133 25.3172 43.2C25.5839 43.76 26.1172 44.04 26.9172 44.04C27.4772 44.04 27.8772 43.84 28.1172 43.44C28.3839 43.04 28.5439 42.5733 28.5972 42.04C28.6505 41.48 28.6772 40.68 28.6772 39.64V38.8C28.6772 35.84 27.7039 34.36 25.7572 34.36C25.4105 34.36 25.1839 34.3733 25.0772 34.4V28.24C26.3039 28.24 27.2239 27.9733 27.8372 27.44C28.4505 26.88 28.7572 26 28.7572 24.8C28.7572 22.8533 28.1972 21.88 27.0772 21.88C26.3839 21.88 25.9305 22.0533 25.7172 22.4C25.5305 22.7467 25.3972 23.1867 25.3172 23.72C25.2639 24.2533 25.2239 24.64 25.1972 24.88V25.92H18.0772L18.0372 24.72C18.0639 21.5733 18.8105 19.2667 20.2772 17.8C21.7439 16.3067 23.9972 15.56 27.0372 15.56C32.8772 15.56 35.7972 18.6133 35.7972 24.72C35.7972 26.5067 35.5572 27.9333 35.0772 29C34.5972 30.04 33.7705 30.7733 32.5972 31.2C33.5572 31.68 34.2639 32.28 34.7172 33C35.1972 33.6933 35.5039 34.5467 35.6372 35.56C35.7972 36.5733 35.8772 37.9333 35.8772 39.64C35.8772 43.1867 35.1305 45.8667 33.6372 47.68C32.1705 49.4933 29.8105 50.4 26.5572 50.4Z" fill="white"/>
</svg>
