<svg width="328" height="482" viewBox="0 0 328 482" fill="none" xmlns="http://www.w3.org/2000/svg">
<rect width="328" height="482" rx="10" fill="#EBEF2E"/>
<path d="M167.386 322V294.8H116.386V268L148.786 150H202.386V266.2H211.586V294.8H202.386V322H167.386ZM146.986 266.2H167.386V179.6L146.986 266.2Z" fill="white"/>
<path d="M301.677 464V458.56H291.477V453.2L297.957 429.6H308.677V452.84H310.517V458.56H308.677V464H301.677ZM297.597 452.84H301.677V435.52L297.597 452.84Z" fill="white"/>
<path d="M27.6772 50V44.56H17.4772V39.2L23.9572 15.6H34.6772V38.84H36.5172V44.56H34.6772V50H27.6772ZM23.5972 38.84H27.6772V21.52L23.5972 38.84Z" fill="white"/>
</svg>
