<svg width="328" height="482" viewBox="0 0 328 482" fill="none" xmlns="http://www.w3.org/2000/svg">
<rect width="328" height="482" rx="10" fill="#0A1930"/>
<path d="M288.848 458.12V454.04H284.808V449.52H288.848V445.48H293.368V449.52H297.448V454.04H293.368V458.12H288.848ZM308.787 464V458.56H298.587V453.2L305.067 429.6H315.787V452.84H317.627V458.56H315.787V464H308.787ZM304.707 452.84H308.787V435.52L304.707 452.84Z" fill="white"/>
<path d="M14.8478 44.12V40.04H10.8078V35.52H14.8478V31.48H19.3678V35.52H23.4478V40.04H19.3678V44.12H14.8478ZM34.7866 50V44.56H24.5866V39.2L31.0666 15.6H41.7866V38.84H43.6266V44.56H41.7866V50H34.7866ZM30.7066 38.84H34.7866V21.52L30.7066 38.84Z" fill="white"/>
<rect x="47" y="94" width="95" height="95" rx="21" fill="#375B92"/>
<rect x="61" y="302" width="95" height="95" rx="21" fill="#EBEF2E"/>
<rect x="202" y="56" width="95" height="95" rx="21" fill="#FF4848"/>
<rect x="202" y="330" width="95" height="95" rx="21" fill="#18FF59"/>
<path d="M118.429 279.95V264.65H103.279V247.7H118.429V232.55H135.379V247.7H150.679V264.65H135.379V279.95H118.429ZM193.2 302V281.6H154.95V261.5L179.25 173H219.45V260.15H226.35V281.6H219.45V302H193.2ZM177.9 260.15H193.2V195.2L177.9 260.15Z" fill="white"/>
</svg>
