<svg width="328" height="482" viewBox="0 0 328 482" fill="none" xmlns="http://www.w3.org/2000/svg">
<rect width="328" height="482" rx="10" fill="#0A1930"/>
<rect x="15" y="15" width="18.8235" height="18.8235" rx="3" fill="#375B92"/>
<rect x="15" y="36.1765" width="18.8235" height="18.8235" rx="3" fill="#EBEF2E"/>
<rect x="36.1765" y="15" width="18.8235" height="18.8235" rx="3" fill="#FF4848"/>
<rect x="36.1765" y="36.1765" width="18.8235" height="18.8235" rx="3" fill="#18FF59"/>
<rect x="273" y="427" width="18.8235" height="18.8235" rx="3" fill="#375B92"/>
<rect x="273" y="448.176" width="18.8235" height="18.8235" rx="3" fill="#EBEF2E"/>
<rect x="294.176" y="427" width="18.8235" height="18.8235" rx="3" fill="#FF4848"/>
<rect x="294.177" y="448.176" width="18.8235" height="18.8235" rx="3" fill="#18FF59"/>
<rect x="37" y="113" width="120" height="120" rx="21" fill="#375B92"/>
<rect x="37" y="248" width="120" height="120" rx="21" fill="#EBEF2E"/>
<rect x="172" y="113" width="120" height="120" rx="21" fill="#FF4848"/>
<rect x="172" y="248" width="120" height="120" rx="21" fill="#18FF59"/>
</svg>
