<svg width="101" height="101" viewBox="0 0 101 101" fill="none" xmlns="http://www.w3.org/2000/svg">
<circle cx="50.5" cy="50.5" r="50.5" fill="#FFE071"/>
<circle cx="50.5" cy="50.5" r="42.5" fill="#F2C94C"/>
<path d="M31.7936 50.4C31.7936 47.8 32.2536 45.24 33.1736 42.72C34.1336 40.2 35.5136 37.92 37.3136 35.88C39.1136 33.84 41.3136 32.22 43.9136 31.02C46.5136 29.78 49.4736 29.16 52.7936 29.16C56.6736 29.16 60.0536 30.02 62.9336 31.74C65.8136 33.46 67.9536 35.7 69.3536 38.46L62.9936 42.84C62.2736 41.24 61.3336 39.98 60.1736 39.06C59.0136 38.14 57.7536 37.48 56.3936 37.08C55.0736 36.68 53.7936 36.48 52.5536 36.48C50.4736 36.48 48.6536 36.9 47.0936 37.74C45.5736 38.58 44.2936 39.68 43.2536 41.04C42.2136 42.4 41.4336 43.92 40.9136 45.6C40.4336 47.28 40.1936 48.96 40.1936 50.64C40.1936 53.16 40.7136 55.52 41.7536 57.72C42.7936 59.88 44.2536 61.64 46.1336 63C48.0136 64.36 50.1936 65.04 52.6736 65.04C53.9536 65.04 55.2736 64.82 56.6336 64.38C58.0336 63.94 59.3136 63.24 60.4736 62.28C61.6336 61.32 62.5336 60.08 63.1736 58.56L69.9536 62.46C69.0736 64.58 67.6936 66.38 65.8136 67.86C63.9336 69.3 61.8136 70.42 59.4536 71.22C57.0936 71.98 54.7536 72.36 52.4336 72.36C49.3936 72.36 46.6136 71.74 44.0936 70.5C41.6136 69.22 39.4536 67.54 37.6136 65.46C35.7736 63.34 34.3336 60.98 33.2936 58.38C32.2936 55.74 31.7936 53.08 31.7936 50.4Z" fill="#CE7B0D"/>
</svg>
