<svg width="250" height="184" viewBox="0 0 250 184" fill="none" xmlns="http://www.w3.org/2000/svg">
<rect y="32.4844" width="124.174" height="156.511" rx="10" transform="rotate(-15 0 32.4844)" fill="#0A1930"/>
<rect x="8.73803" y="38.2263" width="110.266" height="140.895" rx="10" transform="rotate(-15 8.73803 38.2263)" fill="white"/>
<rect x="12.4893" y="40.3922" width="104.14" height="134.769" rx="10" transform="rotate(-15 12.4893 40.3922)" fill="#0A1930"/>
<path d="M80.861 104.778C79.8498 106.954 78.1934 108.766 76.1167 109.967C74.0401 111.169 71.6439 111.702 69.2536 111.495C66.8633 111.287 64.5948 110.349 62.7563 108.808C60.9177 107.266 59.5982 105.196 58.977 102.879C57.5927 97.7122 60.3782 93.4021 64.092 87.6543C67.3314 82.6385 71.2795 76.5272 73.7746 67.805C80.2965 74.1111 86.7714 77.4296 92.0847 80.1537C98.1748 83.2746 102.742 85.6144 104.127 90.7808C104.747 93.0984 104.64 95.5508 103.818 97.8051C102.997 100.059 101.501 102.006 99.5348 103.381C97.5685 104.756 95.2267 105.492 92.8274 105.49C90.4282 105.487 88.0878 104.746 86.1242 103.368C88.4356 106.244 90.9824 108.922 93.7381 111.376C94.7855 112.305 94.4055 114.125 93.0575 114.486L80.4156 117.873C79.0643 118.235 77.8254 116.849 78.2712 115.52C79.4309 112.017 80.2972 108.424 80.861 104.778Z" fill="white"/>
<rect x="130.057" y="0.345825" width="124.174" height="156.511" rx="10" transform="rotate(15 130.057 0.345825)" fill="#0A1930"/>
<rect x="134.754" y="9.68762" width="110.266" height="140.895" rx="10" transform="rotate(15 134.754 9.68762)" fill="white"/>
<rect x="136.919" y="13.4388" width="104.14" height="134.769" rx="10" transform="rotate(15 136.919 13.4388)" fill="#0A1930"/>
<path d="M162.649 66.4255C169.828 68.3492 174.129 75.5566 172.262 82.5257C174.129 75.5566 181.458 71.4655 188.638 73.3892C195.817 75.3129 200.118 82.5203 198.251 89.4894C195.437 99.9928 183.938 100.883 165.248 113.795C165.043 113.936 164.808 114.032 164.561 114.074C164.314 114.116 164.06 114.105 163.818 114.04C163.575 113.975 163.35 113.858 163.157 113.698C162.964 113.538 162.809 113.338 162.701 113.112C152.972 92.5855 143.459 86.0654 146.273 75.5619C148.14 68.5929 155.469 64.5017 162.649 66.4255Z" fill="white"/>
</svg>
