<svg width="328" height="482" viewBox="0 0 328 482" fill="none" xmlns="http://www.w3.org/2000/svg">
<rect width="328" height="482" rx="10" fill="#FF4848"/>
<path d="M163.986 323.6C149.453 323.6 138.253 319.533 130.386 311.4C122.519 303.133 118.586 291.4 118.586 276.2V198.6C118.586 182.333 122.386 169.933 129.986 161.4C137.586 152.867 148.919 148.6 163.986 148.6C179.186 148.6 190.586 152.867 198.186 161.4C205.786 169.933 209.586 182.333 209.586 198.6V276.2C209.586 291.533 205.653 303.267 197.786 311.4C189.919 319.533 178.653 323.6 163.986 323.6ZM163.986 292C166.519 292 168.586 290.867 170.186 288.6C171.786 286.2 172.586 283.4 172.586 280.2V195.4C172.586 190.467 171.986 186.733 170.786 184.2C169.719 181.533 167.453 180.2 163.986 180.2C160.519 180.2 158.253 181.533 157.186 184.2C156.119 186.733 155.586 190.467 155.586 195.4V280.2C155.586 283.4 156.319 286.2 157.786 288.6C159.386 290.867 161.453 292 163.986 292Z" fill="white"/>
<path d="M300.997 464.32C298.091 464.32 295.851 463.507 294.277 461.88C292.704 460.227 291.917 457.88 291.917 454.84V439.32C291.917 436.067 292.677 433.587 294.197 431.88C295.717 430.173 297.984 429.32 300.997 429.32C304.037 429.32 306.317 430.173 307.837 431.88C309.357 433.587 310.117 436.067 310.117 439.32V454.84C310.117 457.907 309.331 460.253 307.757 461.88C306.184 463.507 303.931 464.32 300.997 464.32ZM300.997 458C301.504 458 301.917 457.773 302.237 457.32C302.557 456.84 302.717 456.28 302.717 455.64V438.68C302.717 437.693 302.597 436.947 302.357 436.44C302.144 435.907 301.691 435.64 300.997 435.64C300.304 435.64 299.851 435.907 299.637 436.44C299.424 436.947 299.317 437.693 299.317 438.68V455.64C299.317 456.28 299.464 456.84 299.757 457.32C300.077 457.773 300.491 458 300.997 458Z" fill="white"/>
<path d="M26.9972 50.32C24.0905 50.32 21.8505 49.5067 20.2772 47.88C18.7039 46.2267 17.9172 43.88 17.9172 40.84V25.32C17.9172 22.0667 18.6772 19.5867 20.1972 17.88C21.7172 16.1733 23.9839 15.32 26.9972 15.32C30.0372 15.32 32.3172 16.1733 33.8372 17.88C35.3572 19.5867 36.1172 22.0667 36.1172 25.32V40.84C36.1172 43.9067 35.3305 46.2533 33.7572 47.88C32.1839 49.5067 29.9305 50.32 26.9972 50.32ZM26.9972 44C27.5039 44 27.9172 43.7733 28.2372 43.32C28.5572 42.84 28.7172 42.28 28.7172 41.64V24.68C28.7172 23.6933 28.5972 22.9467 28.3572 22.44C28.1439 21.9067 27.6905 21.64 26.9972 21.64C26.3039 21.64 25.8505 21.9067 25.6372 22.44C25.4239 22.9467 25.3172 23.6933 25.3172 24.68V41.64C25.3172 42.28 25.4639 42.84 25.7572 43.32C26.0772 43.7733 26.4905 44 26.9972 44Z" fill="white"/>
</svg>
