<svg width="328" height="482" viewBox="0 0 328 482" fill="none" xmlns="http://www.w3.org/2000/svg">
<rect width="328" height="482" rx="10" fill="#FF4848"/>
<path d="M128.786 322C129.986 303.6 132.919 286.4 137.586 270.4C142.386 254.4 148.986 235.867 157.386 214.8C160.053 208.133 161.986 203.133 163.186 199.8L169.986 181.8H121.386V150H208.186V175.6C207.519 181.867 206.119 187.867 203.986 193.6C201.986 199.2 199.119 206.067 195.386 214.2C192.453 220.333 190.186 225.467 188.586 229.6C182.853 244.4 178.186 259.333 174.586 274.4C170.986 289.333 168.653 305.2 167.586 322H128.786Z" fill="white"/>
<path d="M293.957 464C294.197 460.32 294.784 456.88 295.717 453.68C296.677 450.48 297.997 446.773 299.677 442.56C300.211 441.227 300.597 440.227 300.837 439.56L302.197 435.96H292.477V429.6H309.837V434.72C309.704 435.973 309.424 437.173 308.997 438.32C308.597 439.44 308.024 440.813 307.277 442.44C306.691 443.667 306.237 444.693 305.917 445.52C304.771 448.48 303.837 451.467 303.117 454.48C302.397 457.467 301.931 460.64 301.717 464H293.957Z" fill="white"/>
<path d="M19.9572 50C20.1972 46.32 20.7839 42.88 21.7172 39.68C22.6772 36.48 23.9972 32.7733 25.6772 28.56C26.2105 27.2267 26.5972 26.2267 26.8372 25.56L28.1972 21.96H18.4772V15.6H35.8372V20.72C35.7039 21.9733 35.4239 23.1733 34.9972 24.32C34.5972 25.44 34.0239 26.8133 33.2772 28.44C32.6905 29.6667 32.2372 30.6933 31.9172 31.52C30.7705 34.48 29.8372 37.4667 29.1172 40.48C28.3972 43.4667 27.9305 46.64 27.7172 50H19.9572Z" fill="white"/>
</svg>
