<svg width="328" height="482" viewBox="0 0 328 482" fill="none" xmlns="http://www.w3.org/2000/svg">
<rect width="328" height="482" rx="10" fill="white"/>
<rect x="6" y="6" width="316" height="470" rx="10" fill="#0A1930"/>
<rect x="53.6597" y="188.018" width="108.449" height="136.691" rx="10" transform="rotate(-15 53.6597 188.018)" fill="#0A1930"/>
<rect x="61.2911" y="193.033" width="96.3018" height="123.052" rx="10" transform="rotate(-15 61.2911 193.033)" fill="white"/>
<rect x="64.5675" y="194.924" width="90.9517" height="117.702" rx="10" transform="rotate(-15 64.5675 194.924)" fill="#0A1930"/>
<path d="M124.281 251.156C123.397 253.057 121.951 254.639 120.137 255.688C118.323 256.738 116.231 257.204 114.143 257.023C112.055 256.841 110.074 256.022 108.469 254.676C106.863 253.329 105.71 251.521 105.168 249.497C103.959 244.985 106.392 241.221 109.635 236.201C112.464 231.821 115.912 226.483 118.092 218.866C123.788 224.373 129.442 227.271 134.083 229.65C139.402 232.376 143.391 234.42 144.6 238.932C145.142 240.956 145.048 243.098 144.33 245.067C143.613 247.035 142.307 248.735 140.59 249.936C138.872 251.137 136.827 251.78 134.732 251.778C132.636 251.776 130.592 251.129 128.877 249.925C130.896 252.436 133.12 254.776 135.527 256.919C136.442 257.73 136.11 259.319 134.932 259.635L123.892 262.593C122.711 262.909 121.629 261.699 122.019 260.538C123.032 257.479 123.788 254.341 124.281 251.156Z" fill="white"/>
<rect x="167.247" y="159.949" width="108.449" height="136.691" rx="10" transform="rotate(15 167.247 159.949)" fill="#0A1930"/>
<rect x="171.348" y="168.108" width="96.3018" height="123.052" rx="10" transform="rotate(15 171.348 168.108)" fill="white"/>
<rect x="173.24" y="171.384" width="90.9517" height="117.702" rx="10" transform="rotate(15 173.24 171.384)" fill="#0A1930"/>
<path d="M195.711 217.66C201.981 219.341 205.737 225.635 204.107 231.722C205.737 225.635 212.138 222.062 218.408 223.742C224.679 225.422 228.435 231.717 226.804 237.804C224.346 246.977 214.304 247.754 197.981 259.031C197.802 259.155 197.597 259.238 197.381 259.275C197.165 259.312 196.944 259.302 196.732 259.245C196.52 259.188 196.323 259.086 196.155 258.946C195.986 258.806 195.85 258.632 195.757 258.435C187.259 240.508 178.951 234.813 181.409 225.64C183.04 219.553 189.44 215.98 195.711 217.66Z" fill="white"/>
</svg>
