<svg width="745" height="622" viewBox="0 0 745 622" fill="none" xmlns="http://www.w3.org/2000/svg">
<rect x="6.87628" y="94.3571" width="338" height="492" rx="15" transform="rotate(-15 6.87628 94.3571)" fill="#0A1930" stroke="white" stroke-width="10"/>
<path d="M255.152 368.024C241.114 371.785 229.243 370.756 219.539 364.936C209.801 358.987 202.965 348.671 199.031 333.989L178.947 259.033C174.737 243.321 175.198 230.36 180.33 220.15C185.463 209.941 195.305 202.886 209.859 198.987C224.541 195.052 236.657 196.223 246.206 202.499C255.756 208.774 262.636 219.768 266.846 235.481L286.93 310.437C290.899 325.247 290.136 337.599 284.643 347.491C279.149 357.383 269.319 364.228 255.152 368.024ZM246.973 337.5C249.42 336.845 251.123 335.215 252.082 332.611C253.006 329.879 253.055 326.967 252.226 323.877L230.278 241.966C229.002 237.201 227.456 233.75 225.641 231.614C223.921 229.314 221.386 228.613 218.037 229.51C214.689 230.407 212.845 232.282 212.504 235.133C212.13 237.857 212.581 241.601 213.858 246.366L235.806 328.276C236.634 331.367 238.067 333.882 240.105 335.821C242.237 337.596 244.526 338.156 246.973 337.5Z" fill="white"/>
<path d="M423.916 468.488C421.108 469.24 418.734 469.034 416.793 467.87C414.846 466.68 413.478 464.617 412.692 461.681L408.675 446.689C407.833 443.547 407.925 440.955 408.951 438.913C409.978 436.871 411.946 435.46 414.857 434.68C417.794 433.893 420.217 434.127 422.127 435.383C424.037 436.638 425.412 438.836 426.255 441.979L430.271 456.97C431.065 459.932 430.913 462.403 429.814 464.381C428.715 466.359 426.749 467.728 423.916 468.488ZM422.28 462.383C422.769 462.252 423.11 461.926 423.302 461.405C423.487 460.859 423.496 460.276 423.331 459.658L418.941 443.276C418.686 442.323 418.376 441.633 418.014 441.206C417.669 440.746 417.163 440.605 416.493 440.785C415.823 440.964 415.454 441.339 415.386 441.909C415.311 442.454 415.402 443.203 415.657 444.156L420.046 460.538C420.212 461.156 420.499 461.659 420.906 462.047C421.333 462.402 421.791 462.514 422.28 462.383Z" fill="white"/>
<path d="M52.1011 139.511C49.2934 140.263 46.9193 140.057 44.9785 138.893C43.0309 137.703 41.6637 135.64 40.8768 132.704L36.86 117.713C36.0179 114.57 36.1102 111.978 37.1367 109.936C38.1632 107.894 40.1317 106.483 43.0424 105.703C45.9788 104.916 48.402 105.151 50.3119 106.406C52.2218 107.661 53.5978 109.86 54.4398 113.002L58.4567 127.993C59.2504 130.955 59.0979 133.426 57.9992 135.404C56.9005 137.383 54.9344 138.751 52.1011 139.511ZM50.4653 133.406C50.9547 133.275 51.2953 132.949 51.4871 132.428C51.6719 131.882 51.6815 131.299 51.5159 130.681L47.1263 114.299C46.871 113.346 46.5618 112.656 46.1988 112.229C45.8547 111.769 45.3478 111.628 44.6781 111.808C44.0084 111.987 43.6395 112.362 43.5715 112.933C43.4966 113.477 43.5868 114.226 43.8422 115.179L48.2318 131.561C48.3974 132.179 48.684 132.682 49.0916 133.07C49.518 133.425 49.9759 133.537 50.4653 133.406Z" fill="white"/>
<rect x="412.215" y="6.87628" width="338" height="492" rx="15" transform="rotate(15 412.215 6.87628)" fill="#0A1930" stroke="white" stroke-width="10"/>
<path d="M492.52 368.586C481.187 365.549 472.753 361.219 467.22 355.595C461.687 349.971 458.604 342.933 457.97 334.481C457.336 326.029 458.675 315.621 461.988 303.257L473.997 258.438C478.587 241.309 483.223 228.127 487.907 218.891C492.753 209.561 499.151 203.2 507.1 199.808C515.083 196.288 525.643 196.288 538.779 199.807C545.992 201.74 552.297 204.741 557.694 208.81C563.091 212.879 566.938 217.843 569.232 223.704C571.527 229.564 571.743 235.971 569.879 242.926L565.065 260.892L532.996 252.299L533.928 248.822C535.447 243.155 536.105 238.638 535.903 235.271C535.829 231.939 533.99 229.789 530.384 228.823C526.777 227.857 523.943 228.133 521.88 229.65C519.945 231.203 518.443 233.975 517.374 237.967L508.418 271.389C510.792 268.712 513.813 266.967 517.481 266.156C521.184 265.216 525.225 265.332 529.604 266.505C538.619 268.921 545.091 272.588 549.019 277.505C553.075 282.457 555.12 288.734 555.154 296.335C555.188 303.936 553.669 313.467 550.598 324.93C545.87 342.574 538.864 355.329 529.579 363.193C520.328 370.929 507.975 372.727 492.52 368.586ZM499.54 337.752C503.017 338.684 505.569 337.918 507.195 335.455C508.985 332.898 510.725 328.464 512.416 322.153L515.987 308.823C518.403 299.808 517.035 294.61 511.884 293.23C506.088 291.677 502.138 294.828 500.033 302.685L494.546 323.162C492.337 331.405 494.002 336.268 499.54 337.752Z" fill="white"/>
<path d="M586.742 539.516C584.475 538.909 582.788 538.043 581.682 536.918C580.575 535.793 579.959 534.386 579.832 532.695C579.705 531.005 579.973 528.923 580.635 526.451L583.037 517.487C583.955 514.061 584.882 511.425 585.819 509.577C586.788 507.711 588.068 506.439 589.658 505.761C591.254 505.057 593.366 505.057 595.994 505.761C597.436 506.147 598.697 506.747 599.777 507.561C600.856 508.375 601.625 509.368 602.084 510.54C602.543 511.712 602.586 512.993 602.214 514.384L601.251 517.978L594.837 516.259L595.023 515.564C595.327 514.43 595.459 513.527 595.418 512.853C595.404 512.187 595.036 511.757 594.314 511.564C593.593 511.371 593.026 511.426 592.614 511.729C592.227 512.04 591.926 512.594 591.712 513.393L589.921 520.077C590.396 519.542 591 519.193 591.734 519.03C592.475 518.842 593.283 518.866 594.159 519.1C595.962 519.583 597.256 520.317 598.042 521.3C598.853 522.291 599.262 523.546 599.269 525.066C599.275 526.586 598.972 528.493 598.357 530.785C597.412 534.314 596.011 536.865 594.153 538.438C592.303 539.985 589.833 540.345 586.742 539.516ZM588.146 533.35C588.841 533.536 589.352 533.383 589.677 532.89C590.035 532.379 590.383 531.492 590.721 530.23L591.435 527.564C591.918 525.761 591.645 524.721 590.614 524.445C589.455 524.135 588.665 524.765 588.244 526.336L587.147 530.432C586.705 532.08 587.038 533.053 588.146 533.35Z" fill="white"/>
<path d="M429.229 68.7067C426.963 68.0993 425.276 67.2332 424.169 66.1085C423.063 64.9838 422.446 63.5762 422.319 61.8858C422.192 60.1954 422.46 58.1138 423.123 55.641L425.525 46.6772C426.443 43.2514 427.37 40.6149 428.307 38.7677C429.276 36.9017 430.555 35.6295 432.145 34.9512C433.742 34.2471 435.854 34.247 438.481 34.951C439.924 35.3375 441.185 35.9377 442.264 36.7515C443.344 37.5652 444.113 38.5582 444.572 39.7302C445.031 40.9023 445.074 42.1838 444.701 43.5747L443.738 47.1679L437.325 45.4494L437.511 44.7539C437.815 43.6206 437.946 42.7172 437.906 42.0438C437.891 41.3773 437.523 40.9474 436.802 40.7541C436.081 40.5609 435.514 40.616 435.101 40.9196C434.714 41.23 434.414 41.7845 434.2 42.583L432.409 49.2672C432.884 48.7319 433.488 48.383 434.222 48.2207C434.962 48.0326 435.77 48.0559 436.646 48.2906C438.449 48.7737 439.743 49.507 440.529 50.4905C441.34 51.4809 441.749 52.7362 441.756 54.2565C441.763 55.7767 441.459 57.683 440.845 59.9755C439.899 63.5043 438.498 66.0552 436.641 67.6282C434.791 69.1754 432.32 69.5349 429.229 68.7067ZM430.633 62.5399C431.329 62.7262 431.839 62.5731 432.164 62.0805C432.522 61.569 432.87 60.6822 433.208 59.4201L433.923 56.7541C434.406 54.9511 434.132 53.9115 433.102 53.6354C431.943 53.3249 431.153 53.9552 430.732 55.5264L429.634 59.6219C429.193 61.2705 429.526 62.2431 430.633 62.5399Z" fill="white"/>
<path d="M204.235 408.38V392.38H188.235V408.38H204.235ZM280.195 444.74L296.194 444.66L296.194 444.62L296.194 444.58L280.195 444.74ZM280.555 517.1L264.555 517.18L264.555 517.203L264.555 517.226L280.555 517.1ZM272.635 551.48L259.546 542.277L259.546 542.277L272.635 551.48ZM204.235 563H188.235V579H204.235V563ZM248.335 439.88L232.875 444.003L233.045 444.64L233.267 445.261L248.335 439.88ZM235.375 435.38V419.38H219.375V435.38H235.375ZM235.375 535.64H219.375V551.64H235.375V535.64ZM204.235 424.38H246.895V392.38H204.235V424.38ZM246.895 424.38C255.018 424.38 258.301 426.556 259.853 428.276L283.616 406.844C274.128 396.324 260.852 392.38 246.895 392.38V424.38ZM259.853 428.276C261.787 430.42 264.097 435.055 264.195 444.9L296.194 444.58C296.052 430.425 292.722 416.94 283.616 406.844L259.853 428.276ZM264.195 444.82L264.555 517.18L296.554 517.02L296.194 444.66L264.195 444.82ZM264.555 517.226C264.664 531.033 262.164 538.554 259.546 542.277L285.723 560.683C293.905 549.046 296.685 533.647 296.554 516.974L264.555 517.226ZM259.546 542.277C258.083 544.358 254.97 547 245.815 547V579C261.619 579 276.386 573.962 285.723 560.683L259.546 542.277ZM245.815 547H204.235V579H245.815V547ZM220.235 563V408.38H188.235V563H220.235ZM240.775 551.64C245.975 551.64 252.831 550.368 258.311 545.005C263.854 539.579 265.235 532.675 265.235 527.36H233.235C233.235 527.565 233.205 524.801 235.928 522.135C238.588 519.532 241.214 519.64 240.775 519.64V551.64ZM265.235 527.36V447.62H233.235V527.36H265.235ZM265.235 447.62C265.235 443.707 264.96 438.859 263.402 434.499L233.267 445.261C233.129 444.876 233.079 444.64 233.074 444.616C233.067 444.585 233.088 444.678 233.117 444.923C233.176 445.434 233.235 446.305 233.235 447.62H265.235ZM263.794 435.757C262.313 430.201 258.549 424.403 251.608 421.511L239.301 451.049C237.579 450.332 235.986 449.157 234.761 447.625C233.595 446.168 233.087 444.8 232.875 444.003L263.794 435.757ZM251.608 421.511C247.152 419.654 242.319 419.38 238.795 419.38V451.38C239.282 451.38 239.674 451.392 239.98 451.41C240.289 451.428 240.479 451.449 240.567 451.461C240.659 451.473 240.595 451.469 240.408 451.423C240.227 451.379 239.834 451.271 239.301 451.049L251.608 421.511ZM238.795 419.38H235.375V451.38H238.795V419.38ZM219.375 435.38V535.64H251.375V435.38H219.375ZM235.375 551.64H240.775V519.64H235.375V551.64ZM300.384 553.64L288.193 564.002L288.243 564.061L288.293 564.119L300.384 553.64ZM291.204 408.38V392.38H275.204V408.38H291.204ZM321.264 408.38H337.264V392.38H321.264V408.38ZM334.944 532.04L349.981 537.508L350.019 537.402L350.056 537.296L334.944 532.04ZM336.384 408.38V392.38H320.384V408.38H336.384ZM366.444 408.38H382.444V392.38H366.444V408.38ZM357.084 553.64L344.993 543.161L344.943 543.219L344.893 543.278L357.084 553.64ZM328.824 548.44C319.101 548.44 314.744 545.779 312.475 543.161L288.293 564.119C298.504 575.901 313.107 580.44 328.824 580.44V548.44ZM312.575 543.278C309.883 540.111 307.204 533.791 307.204 521.6H275.204C275.204 537.729 278.645 552.769 288.193 564.002L312.575 543.278ZM307.204 521.6V408.38H275.204V521.6H307.204ZM291.204 424.38H321.264V392.38H291.204V424.38ZM305.264 408.38V520.34H337.264V408.38H305.264ZM305.264 520.34C305.264 526.001 305.778 531.899 307.592 537.116L337.816 526.604C337.817 526.606 337.805 526.573 337.785 526.5C337.765 526.427 337.738 526.321 337.706 526.177C337.643 525.885 337.569 525.474 337.501 524.925C337.361 523.812 337.264 522.305 337.264 520.34H305.264ZM307.592 537.116C308.987 541.128 311.607 545.253 315.989 548.218C320.283 551.122 324.92 552 328.824 552V520C329.608 520 331.665 520.188 333.919 521.712C336.261 523.297 337.381 525.352 337.816 526.604L307.592 537.116ZM328.824 552C332.601 552 337.134 551.195 341.386 548.443C345.774 545.604 348.503 541.571 349.981 537.508L319.907 526.572C320.425 525.149 321.654 523.096 324.002 521.577C326.214 520.145 328.167 520 328.824 520V552ZM350.056 537.296C351.881 532.051 352.384 526.069 352.384 520.34H320.384C320.384 522.379 320.285 523.94 320.144 525.091C320.074 525.657 319.999 526.079 319.935 526.375C319.871 526.674 319.827 526.798 319.832 526.784L350.056 537.296ZM352.384 520.34V408.38H320.384V520.34H352.384ZM336.384 424.38H366.444V392.38H336.384V424.38ZM350.444 408.38V521.6H382.444V408.38H350.444ZM350.444 521.6C350.444 533.729 347.733 540 344.993 543.161L369.175 564.119C378.915 552.88 382.444 537.791 382.444 521.6H350.444ZM344.893 543.278C342.773 545.772 338.568 548.44 328.824 548.44V580.44C344.52 580.44 359.155 575.908 369.275 564.002L344.893 543.278ZM378.258 563H362.258V579H378.258V563ZM378.258 408.38V392.38H362.258V408.38H378.258ZM410.118 408.38L425.83 405.36L423.335 392.38H410.118V408.38ZM424.338 482.36L408.626 485.38L440.338 482.36H424.338ZM424.338 408.38V392.38H408.338V408.38H424.338ZM454.218 408.38H470.218V392.38H454.218V408.38ZM454.218 563V579H470.218V563H454.218ZM423.978 563L408.289 566.138L410.861 579H423.978V563ZM408.498 485.6L424.187 482.462L392.498 485.6H408.498ZM408.498 563V579H424.498V563H408.498ZM394.258 563V408.38H362.258V563H394.258ZM378.258 424.38H410.118V392.38H378.258V424.38ZM394.406 411.4L408.626 485.38L440.05 479.34L425.83 405.36L394.406 411.4ZM440.338 482.36V408.38H408.338V482.36H440.338ZM424.338 424.38H454.218V392.38H424.338V424.38ZM438.218 408.38V563H470.218V408.38H438.218ZM454.218 547H423.978V579H454.218V547ZM439.667 559.862L424.187 482.462L392.809 488.738L408.289 566.138L439.667 559.862ZM392.498 485.6V563H424.498V485.6H392.498ZM408.498 547H378.258V579H408.498V547ZM476.366 553.1L464.138 563.418L464.178 563.465L464.218 563.513L476.366 553.1ZM476.366 417.2L487.884 428.306L487.933 428.255L487.982 428.204L476.366 417.2ZM533.246 417.2L521.631 428.204L521.68 428.255L521.729 428.306L533.246 417.2ZM533.246 553.1L545.395 563.513L545.395 563.513L533.246 553.1ZM510.386 532.4L525.242 538.342L525.242 538.342L510.386 532.4ZM510.386 438.62L495.474 444.419L495.674 444.933L495.909 445.433L510.386 438.62ZM498.866 532.58L513.326 525.731L513.326 525.731L498.866 532.58ZM504.806 548.44C495.716 548.44 491.21 545.832 488.515 542.687L464.218 563.513C474.483 575.488 488.937 580.44 504.806 580.44V548.44ZM488.595 542.782C485.325 538.907 482.646 532.31 482.646 520.88H450.646C450.646 537.05 454.448 551.933 464.138 563.418L488.595 542.782ZM482.646 520.88V447.26H450.646V520.88H482.646ZM482.646 447.26C482.646 436.311 485.311 430.974 487.884 428.306L464.849 406.094C454.462 416.866 450.646 431.569 450.646 447.26H482.646ZM487.982 428.204C490.549 425.493 495.231 422.94 504.806 422.94V390.94C489.422 390.94 475.143 395.226 464.751 406.196L487.982 428.204ZM504.806 422.94C514.382 422.94 519.063 425.493 521.631 428.204L544.862 406.196C534.469 395.226 520.191 390.94 504.806 390.94V422.94ZM521.729 428.306C524.302 430.974 526.966 436.311 526.966 447.26H558.966C558.966 431.569 555.151 416.866 544.764 406.094L521.729 428.306ZM526.966 447.26V520.88H558.966V447.26H526.966ZM526.966 520.88C526.966 532.49 524.261 538.998 521.098 542.687L545.395 563.513C555.192 552.082 558.966 537.11 558.966 520.88H526.966ZM521.098 542.687C518.403 545.832 513.897 548.44 504.806 548.44V580.44C520.676 580.44 535.13 575.488 545.395 563.513L521.098 542.687ZM504.806 552C508.504 552 512.859 551.181 516.945 548.545C521.11 545.858 523.743 542.091 525.242 538.342L495.531 526.458C496.07 525.109 497.292 523.142 499.597 521.655C501.824 520.219 503.869 520 504.806 520V552ZM525.242 538.342C527.299 533.2 527.826 527.493 527.826 522.32H495.826C495.826 523.916 495.736 525.057 495.627 525.817C495.515 526.604 495.417 526.742 495.531 526.458L525.242 538.342ZM527.826 522.32V446.72H495.826V522.32H527.826ZM527.826 446.72C527.826 442.06 527.195 436.762 524.864 431.807L495.909 445.433C495.676 444.937 495.669 444.725 495.713 444.976C495.757 445.222 495.826 445.778 495.826 446.72H527.826ZM525.298 432.821C523.734 428.797 520.901 425.028 516.638 422.47C512.586 420.039 508.376 419.38 504.986 419.38V451.38C504.356 451.38 502.427 451.261 500.174 449.91C497.712 448.432 496.199 446.283 495.474 444.419L525.298 432.821ZM504.986 419.38C497.692 419.38 490.434 422.528 485.837 429.477C482.007 435.267 481.246 441.923 481.246 447.08H513.246C513.246 445.962 513.344 445.458 513.355 445.407C513.368 445.348 513.222 446.08 512.526 447.133C511.759 448.292 510.517 449.535 508.8 450.4C507.147 451.233 505.724 451.38 504.986 451.38V419.38ZM481.246 447.08V522.5H513.246V447.08H481.246ZM481.246 522.5C481.246 527.772 481.814 533.955 484.407 539.429L513.326 525.731C513.614 526.338 513.556 526.482 513.449 525.811C513.347 525.179 513.246 524.11 513.246 522.5H481.246ZM484.407 539.429C486.189 543.192 489.073 546.647 493.178 549.011C497.152 551.299 501.283 552 504.806 552V520C505.449 520 507.151 520.131 509.145 521.279C511.27 522.503 512.624 524.248 513.326 525.731L484.407 539.429Z" fill="white"/>
<path d="M204.235 408.38H246.895C257.935 408.38 266.215 411.44 271.735 417.56C277.255 423.68 280.075 432.74 280.195 444.74L280.555 517.1C280.675 532.34 278.035 543.8 272.635 551.48C267.235 559.16 258.295 563 245.815 563H204.235V408.38ZM240.775 535.64C246.415 535.64 249.235 532.88 249.235 527.36V447.62C249.235 444.14 248.935 441.56 248.335 439.88C247.855 438.08 246.895 436.88 245.455 436.28C244.015 435.68 241.795 435.38 238.795 435.38H235.375V535.64H240.775ZM328.824 564.44C316.104 564.44 306.624 560.84 300.384 553.64C294.264 546.44 291.204 535.76 291.204 521.6V408.38H321.264V520.34C321.264 525.26 321.744 529.1 322.704 531.86C323.664 534.62 325.704 536 328.824 536C331.944 536 333.984 534.68 334.944 532.04C335.904 529.28 336.384 525.38 336.384 520.34V408.38H366.444V521.6C366.444 535.76 363.324 546.44 357.084 553.64C350.964 560.84 341.544 564.44 328.824 564.44ZM378.258 563V408.38H410.118L424.338 482.36V408.38H454.218V563H423.978L408.498 485.6V563H378.258ZM504.806 564.44C492.326 564.44 482.846 560.66 476.366 553.1C469.886 545.42 466.646 534.68 466.646 520.88V447.26C466.646 433.94 469.886 423.92 476.366 417.2C482.846 410.36 492.326 406.94 504.806 406.94C517.286 406.94 526.766 410.36 533.246 417.2C539.726 423.92 542.966 433.94 542.966 447.26V520.88C542.966 534.8 539.726 545.54 533.246 553.1C526.766 560.66 517.286 564.44 504.806 564.44ZM504.806 536C507.566 536 509.426 534.8 510.386 532.4C511.346 530 511.826 526.64 511.826 522.32V446.72C511.826 443.36 511.346 440.66 510.386 438.62C509.546 436.46 507.746 435.38 504.986 435.38C499.826 435.38 497.246 439.28 497.246 447.08V522.5C497.246 526.94 497.786 530.3 498.866 532.58C499.946 534.86 501.926 536 504.806 536Z" fill="#0A1930"/>
</svg>
