<svg width="328" height="482" viewBox="0 0 328 482" fill="none" xmlns="http://www.w3.org/2000/svg">
<rect width="328" height="482" rx="10" fill="#0A1930"/>
<path d="M163.986 323.8C148.253 323.8 136.786 319.333 129.586 310.4C122.519 301.467 118.986 288.267 118.986 270.8V259.4C118.986 250.333 120.053 243.133 122.186 237.8C124.453 232.467 128.319 228.467 133.786 225.8C128.586 223.667 124.853 220.133 122.586 215.2C120.319 210.267 119.186 203.933 119.186 196.2V191.6C119.186 176.667 122.919 165.667 130.386 158.6C137.986 151.533 149.186 148 163.986 148C179.053 148 190.253 151.6 197.586 158.8C205.053 166 208.786 177.4 208.786 193C208.786 201.8 207.719 208.933 205.586 214.4C203.453 219.733 199.653 223.6 194.186 226C200.319 228.933 204.319 233.533 206.186 239.8C208.053 245.933 208.986 254.8 208.986 266.4C208.986 268.667 208.919 270.133 208.786 270.8C208.786 288.267 205.253 301.467 198.186 310.4C191.119 319.333 179.719 323.8 163.986 323.8ZM163.986 211.2C169.986 211.2 172.986 205.733 172.986 194.8C172.986 190.533 172.253 186.933 170.786 184C169.453 181.067 167.186 179.6 163.986 179.6C160.786 179.6 158.453 181.067 156.986 184C155.653 186.933 154.986 190.533 154.986 194.8C154.986 205.733 157.986 211.2 163.986 211.2ZM163.986 289.8C170.253 289.8 173.386 284.133 173.386 272.8L173.186 264.2C173.186 257.667 172.653 252.4 171.586 248.4C170.519 244.4 167.986 242.4 163.986 242.4C160.653 242.4 158.253 244.2 156.786 247.8C155.319 251.267 154.586 255.6 154.586 260.8C154.586 263.067 154.653 264.733 154.786 265.8V267.4L154.586 272.8C154.586 284.133 157.719 289.8 163.986 289.8Z" fill="white"/>
<path d="M300.997 464.36C297.851 464.36 295.557 463.467 294.117 461.68C292.704 459.893 291.997 457.253 291.997 453.76V451.48C291.997 449.667 292.211 448.227 292.637 447.16C293.091 446.093 293.864 445.293 294.957 444.76C293.917 444.333 293.171 443.627 292.717 442.64C292.264 441.653 292.037 440.387 292.037 438.84V437.92C292.037 434.933 292.784 432.733 294.277 431.32C295.797 429.907 298.037 429.2 300.997 429.2C304.011 429.2 306.251 429.92 307.717 431.36C309.211 432.8 309.957 435.08 309.957 438.2C309.957 439.96 309.744 441.387 309.317 442.48C308.891 443.547 308.131 444.32 307.037 444.8C308.264 445.387 309.064 446.307 309.437 447.56C309.811 448.787 309.997 450.56 309.997 452.88C309.997 453.333 309.984 453.627 309.957 453.76C309.957 457.253 309.251 459.893 307.837 461.68C306.424 463.467 304.144 464.36 300.997 464.36ZM300.997 441.84C302.197 441.84 302.797 440.747 302.797 438.56C302.797 437.707 302.651 436.987 302.357 436.4C302.091 435.813 301.637 435.52 300.997 435.52C300.357 435.52 299.891 435.813 299.597 436.4C299.331 436.987 299.197 437.707 299.197 438.56C299.197 440.747 299.797 441.84 300.997 441.84ZM300.997 457.56C302.251 457.56 302.877 456.427 302.877 454.16L302.837 452.44C302.837 451.133 302.731 450.08 302.517 449.28C302.304 448.48 301.797 448.08 300.997 448.08C300.331 448.08 299.851 448.44 299.557 449.16C299.264 449.853 299.117 450.72 299.117 451.76C299.117 452.213 299.131 452.547 299.157 452.76V453.08L299.117 454.16C299.117 456.427 299.744 457.56 300.997 457.56Z" fill="white"/>
<path d="M26.9972 50.36C23.8505 50.36 21.5572 49.4667 20.1172 47.68C18.7039 45.8933 17.9972 43.2533 17.9972 39.76V37.48C17.9972 35.6667 18.2105 34.2267 18.6372 33.16C19.0905 32.0933 19.8639 31.2933 20.9572 30.76C19.9172 30.3333 19.1705 29.6267 18.7172 28.64C18.2639 27.6533 18.0372 26.3867 18.0372 24.84V23.92C18.0372 20.9333 18.7839 18.7333 20.2772 17.32C21.7972 15.9067 24.0372 15.2 26.9972 15.2C30.0105 15.2 32.2505 15.92 33.7172 17.36C35.2105 18.8 35.9572 21.08 35.9572 24.2C35.9572 25.96 35.7439 27.3867 35.3172 28.48C34.8905 29.5467 34.1305 30.32 33.0372 30.8C34.2639 31.3867 35.0639 32.3067 35.4372 33.56C35.8105 34.7867 35.9972 36.56 35.9972 38.88C35.9972 39.3333 35.9839 39.6267 35.9572 39.76C35.9572 43.2533 35.2505 45.8933 33.8372 47.68C32.4239 49.4667 30.1439 50.36 26.9972 50.36ZM26.9972 27.84C28.1972 27.84 28.7972 26.7467 28.7972 24.56C28.7972 23.7067 28.6505 22.9867 28.3572 22.4C28.0905 21.8133 27.6372 21.52 26.9972 21.52C26.3572 21.52 25.8905 21.8133 25.5972 22.4C25.3305 22.9867 25.1972 23.7067 25.1972 24.56C25.1972 26.7467 25.7972 27.84 26.9972 27.84ZM26.9972 43.56C28.2505 43.56 28.8772 42.4267 28.8772 40.16L28.8372 38.44C28.8372 37.1333 28.7305 36.08 28.5172 35.28C28.3039 34.48 27.7972 34.08 26.9972 34.08C26.3305 34.08 25.8505 34.44 25.5572 35.16C25.2639 35.8533 25.1172 36.72 25.1172 37.76C25.1172 38.2133 25.1305 38.5467 25.1572 38.76V39.08L25.1172 40.16C25.1172 42.4267 25.7439 43.56 26.9972 43.56Z" fill="white"/>
</svg>
