<svg width="328" height="482" viewBox="0 0 328 482" fill="none" xmlns="http://www.w3.org/2000/svg">
<rect width="328" height="482" rx="10" fill="#0A1930"/>
<path d="M154.583 272.583C187.55 271.817 197.069 244.153 197.708 230.417H237C236.042 271.625 213.042 294.625 195.792 305.167C181.992 313.6 162.569 315.708 154.583 315.708V334.875L82.7083 295.583L154.583 255.333V272.583Z" fill="white"/>
<path d="M158.417 187.292C125.45 188.058 115.931 215.722 115.292 229.458L76.0001 229.458C76.9584 188.25 99.9584 165.25 117.208 154.708C131.008 146.275 150.431 144.167 158.417 144.167L158.417 125L230.292 164.292L158.417 204.542L158.417 187.292Z" fill="white"/>
<path d="M26.7877 37.656C31.7328 37.541 33.1608 33.3913 33.2566 31.3308H39.1506C39.0068 37.5123 35.5567 40.9624 32.9691 42.5437C30.8991 43.8087 27.9856 44.125 26.7877 44.125V47L16.0061 41.1061L26.7877 35.0684V37.656Z" fill="white"/>
<path d="M27.3629 24.8618C22.4178 24.9768 20.9898 29.1265 20.894 31.187L15.0001 31.187C15.1438 25.0056 18.5939 21.5555 21.1815 19.9742C23.2516 18.7091 26.165 18.3929 27.3629 18.3929L27.3629 15.5178L38.1445 21.4117L27.3629 27.4494L27.3629 24.8618Z" fill="white"/>
<path d="M300.788 457.138C305.733 457.023 307.161 452.873 307.257 450.813H313.151C313.007 456.994 309.557 460.445 306.969 462.026C304.899 463.291 301.986 463.607 300.788 463.607V466.482L290.006 460.588L300.788 454.551V457.138Z" fill="white"/>
<path d="M301.363 444.344C296.418 444.459 294.99 448.609 294.894 450.669L289 450.669C289.144 444.488 292.594 441.038 295.182 439.456C297.252 438.191 300.165 437.875 301.363 437.875L301.363 435L312.145 440.894L301.363 446.932L301.363 444.344Z" fill="white"/>
</svg>
