<svg width="328" height="482" viewBox="0 0 328 482" fill="none" xmlns="http://www.w3.org/2000/svg">
<rect width="328" height="482" rx="10" fill="#18FF59"/>
<path d="M109.315 287.54V269.18H91.1352V248.84H109.315V230.66H129.655V248.84H148.015V269.18H129.655V287.54H109.315ZM156.92 306.62C156.92 299.54 158 293 160.16 287C162.44 281 165.2 275.6 168.44 270.8C171.68 266 175.94 260.36 181.22 253.88C186.62 247.16 190.88 241.46 194 236.78C197.24 232.1 199.94 226.76 202.1 220.76C204.38 214.64 205.52 208.04 205.52 200.96C205.52 196.76 204.92 193.52 203.72 191.24C202.52 188.84 200.36 187.64 197.24 187.64C192.08 187.64 189.5 192.26 189.5 201.5V220.4H156.92L156.56 210.86C156.56 199.1 157.76 189.44 160.16 181.88C162.56 174.32 166.76 168.56 172.76 164.6C178.76 160.64 187.04 158.66 197.6 158.66C210.56 158.66 220.58 162.32 227.66 169.64C234.74 176.84 238.28 187.1 238.28 200.42C238.28 208.94 237.08 216.68 234.68 223.64C232.4 230.48 229.52 236.48 226.04 241.64C222.68 246.8 218.18 252.86 212.54 259.82C208.46 264.74 205.04 269.12 202.28 272.96C199.64 276.8 197.24 280.76 195.08 284.84H237.2V314H156.92V306.62Z" fill="white"/>
<path d="M288.848 458.12V454.04H284.808V449.52H288.848V445.48H293.368V449.52H297.448V454.04H293.368V458.12H288.848ZM299.427 462.36C299.427 460.787 299.667 459.333 300.147 458C300.653 456.667 301.267 455.467 301.987 454.4C302.707 453.333 303.653 452.08 304.827 450.64C306.027 449.147 306.973 447.88 307.667 446.84C308.387 445.8 308.987 444.613 309.467 443.28C309.973 441.92 310.227 440.453 310.227 438.88C310.227 437.947 310.093 437.227 309.827 436.72C309.56 436.187 309.08 435.92 308.387 435.92C307.24 435.92 306.667 436.947 306.667 439V443.2H299.427L299.347 441.08C299.347 438.467 299.613 436.32 300.147 434.64C300.68 432.96 301.613 431.68 302.947 430.8C304.28 429.92 306.12 429.48 308.467 429.48C311.347 429.48 313.573 430.293 315.147 431.92C316.72 433.52 317.507 435.8 317.507 438.76C317.507 440.653 317.24 442.373 316.707 443.92C316.2 445.44 315.56 446.773 314.787 447.92C314.04 449.067 313.04 450.413 311.787 451.96C310.88 453.053 310.12 454.027 309.507 454.88C308.92 455.733 308.387 456.613 307.907 457.52H317.267V464H299.427V462.36Z" fill="white"/>
<path d="M14.8478 44.12V40.04H10.8078V35.52H14.8478V31.48H19.3678V35.52H23.4478V40.04H19.3678V44.12H14.8478ZM25.4266 48.36C25.4266 46.7867 25.6666 45.3333 26.1466 44C26.6532 42.6667 27.2666 41.4667 27.9866 40.4C28.7066 39.3333 29.6532 38.08 30.8266 36.64C32.0266 35.1467 32.9732 33.88 33.6666 32.84C34.3866 31.8 34.9866 30.6133 35.4666 29.28C35.9732 27.92 36.2266 26.4533 36.2266 24.88C36.2266 23.9467 36.0932 23.2267 35.8266 22.72C35.5599 22.1867 35.0799 21.92 34.3866 21.92C33.2399 21.92 32.6666 22.9467 32.6666 25V29.2H25.4266L25.3466 27.08C25.3466 24.4667 25.6132 22.32 26.1466 20.64C26.6799 18.96 27.6132 17.68 28.9466 16.8C30.2799 15.92 32.1199 15.48 34.4666 15.48C37.3466 15.48 39.5732 16.2933 41.1466 17.92C42.7199 19.52 43.5066 21.8 43.5066 24.76C43.5066 26.6533 43.2399 28.3733 42.7066 29.92C42.1999 31.44 41.5599 32.7733 40.7866 33.92C40.0399 35.0667 39.0399 36.4133 37.7866 37.96C36.8799 39.0533 36.1199 40.0267 35.5066 40.88C34.9199 41.7333 34.3866 42.6133 33.9066 43.52H43.2666V50H25.4266V48.36Z" fill="white"/>
</svg>
