<svg width="328" height="482" viewBox="0 0 328 482" fill="none" xmlns="http://www.w3.org/2000/svg">
<rect width="328" height="482" rx="10" fill="#18FF59"/>
<path d="M154.495 189.6C152.228 192.4 149.028 194.667 144.895 196.4C140.895 198.133 137.028 199 133.295 199V171.6C139.161 170.667 144.961 168.333 150.695 164.6C156.561 160.867 160.761 156 163.295 150H190.895V322H154.495V189.6Z" fill="white"/>
<path d="M299.099 437.52C298.646 438.08 298.006 438.533 297.179 438.88C296.379 439.227 295.606 439.4 294.859 439.4V433.92C296.032 433.733 297.192 433.267 298.339 432.52C299.512 431.773 300.352 430.8 300.859 429.6H306.379V464H299.099V437.52Z" fill="white"/>
<path d="M25.0989 23.52C24.6456 24.08 24.0056 24.5333 23.1789 24.88C22.3789 25.2267 21.6056 25.4 20.8589 25.4V19.92C22.0322 19.7333 23.1922 19.2667 24.3389 18.52C25.5122 17.7733 26.3522 16.8 26.8589 15.6H32.3789V50H25.0989V23.52Z" fill="white"/>
</svg>
