<svg width="328" height="482" viewBox="0 0 328 482" fill="none" xmlns="http://www.w3.org/2000/svg">
<rect width="328" height="482" rx="10" fill="#18FF59"/>
<path d="M163.986 324.4C150.253 324.4 139.319 321.067 131.186 314.4C123.053 307.6 118.986 297.6 118.986 284.4V259H154.786V273.6C154.786 279.467 155.386 284.067 156.586 287.4C157.786 290.733 160.253 292.4 163.986 292.4C167.453 292.4 169.786 291.267 170.986 289C172.319 286.733 172.986 283.4 172.986 279V245.2C172.986 239.733 172.386 235.4 171.186 232.2C170.119 228.867 167.786 227.2 164.186 227.2C157.653 227.2 154.386 231.933 154.386 241.4H122.986V150H204.786V182.2H155.586V206.4C157.319 204.133 159.653 202.267 162.586 200.8C165.519 199.333 168.853 198.6 172.586 198.6C186.986 198.6 196.786 203.667 201.986 213.8C207.319 223.933 209.986 238.267 209.986 256.8C209.986 272.133 208.853 284.6 206.586 294.2C204.453 303.667 200.053 311.067 193.386 316.4C186.719 321.733 176.919 324.4 163.986 324.4Z" fill="white"/>
<path d="M300.997 464.48C298.251 464.48 296.064 463.813 294.437 462.48C292.811 461.12 291.997 459.12 291.997 456.48V451.4H299.157V454.32C299.157 455.493 299.277 456.413 299.517 457.08C299.757 457.747 300.251 458.08 300.997 458.08C301.691 458.08 302.157 457.853 302.397 457.4C302.664 456.947 302.797 456.28 302.797 455.4V448.64C302.797 447.547 302.677 446.68 302.437 446.04C302.224 445.373 301.757 445.04 301.037 445.04C299.731 445.04 299.077 445.987 299.077 447.88H292.797V429.6H309.157V436.04H299.317V440.88C299.664 440.427 300.131 440.053 300.717 439.76C301.304 439.467 301.971 439.32 302.717 439.32C305.597 439.32 307.557 440.333 308.597 442.36C309.664 444.387 310.197 447.253 310.197 450.96C310.197 454.027 309.971 456.52 309.517 458.44C309.091 460.333 308.211 461.813 306.877 462.88C305.544 463.947 303.584 464.48 300.997 464.48Z" fill="white"/>
<path d="M26.9972 50.48C24.2505 50.48 22.0639 49.8133 20.4372 48.48C18.8105 47.12 17.9972 45.12 17.9972 42.48V37.4H25.1572V40.32C25.1572 41.4933 25.2772 42.4133 25.5172 43.08C25.7572 43.7467 26.2505 44.08 26.9972 44.08C27.6905 44.08 28.1572 43.8533 28.3972 43.4C28.6639 42.9467 28.7972 42.28 28.7972 41.4V34.64C28.7972 33.5467 28.6772 32.68 28.4372 32.04C28.2239 31.3733 27.7572 31.04 27.0372 31.04C25.7305 31.04 25.0772 31.9867 25.0772 33.88H18.7972V15.6H35.1572V22.04H25.3172V26.88C25.6639 26.4267 26.1305 26.0533 26.7172 25.76C27.3039 25.4667 27.9705 25.32 28.7172 25.32C31.5972 25.32 33.5572 26.3333 34.5972 28.36C35.6639 30.3867 36.1972 33.2533 36.1972 36.96C36.1972 40.0267 35.9705 42.52 35.5172 44.44C35.0905 46.3333 34.2105 47.8133 32.8772 48.88C31.5439 49.9467 29.5839 50.48 26.9972 50.48Z" fill="white"/>
</svg>
