<svg width="328" height="482" viewBox="0 0 328 482" fill="none" xmlns="http://www.w3.org/2000/svg">
<rect width="328" height="482" rx="10" fill="#18FF59"/>
<path d="M166.186 323.6C154.453 323.6 145.186 321.6 138.386 317.6C131.586 313.6 126.786 307.6 123.986 299.6C121.186 291.6 119.786 281.2 119.786 268.4V222C119.786 204.267 120.853 190.333 122.986 180.2C125.253 169.933 129.786 162.133 136.586 156.8C143.386 151.333 153.586 148.6 167.186 148.6C174.653 148.6 181.519 149.867 187.786 152.4C194.053 154.933 199.053 158.733 202.786 163.8C206.519 168.867 208.386 175 208.386 182.2V200.8H175.186V197.2C175.186 191.333 174.653 186.8 173.586 183.6C172.653 180.4 170.319 178.8 166.586 178.8C162.853 178.8 160.186 179.8 158.586 181.8C157.119 183.8 156.386 186.867 156.386 191V225.6C157.986 222.4 160.453 219.933 163.786 218.2C167.119 216.333 171.053 215.4 175.586 215.4C184.919 215.4 192.119 217.267 197.186 221C202.386 224.733 205.986 230.267 207.986 237.6C209.986 244.933 210.986 254.533 210.986 266.4C210.986 284.667 207.519 298.8 200.586 308.8C193.653 318.667 182.186 323.6 166.186 323.6ZM164.986 292C168.586 292 170.853 290.6 171.786 287.8C172.853 284.867 173.386 280.133 173.386 273.6V259.8C173.386 250.467 170.719 245.8 165.386 245.8C159.386 245.8 156.386 249.867 156.386 258V279.2C156.386 287.733 159.253 292 164.986 292Z" fill="white"/>
<path d="M114.586 352H213.386V362H114.586V352Z" fill="white"/>
<path d="M301.437 464.32C299.091 464.32 297.237 463.92 295.877 463.12C294.517 462.32 293.557 461.12 292.997 459.52C292.437 457.92 292.157 455.84 292.157 453.28V444C292.157 440.453 292.371 437.667 292.797 435.64C293.251 433.587 294.157 432.027 295.517 430.96C296.877 429.867 298.917 429.32 301.637 429.32C303.131 429.32 304.504 429.573 305.757 430.08C307.011 430.587 308.011 431.347 308.757 432.36C309.504 433.373 309.877 434.6 309.877 436.04V439.76H303.237V439.04C303.237 437.867 303.131 436.96 302.917 436.32C302.731 435.68 302.264 435.36 301.517 435.36C300.771 435.36 300.237 435.56 299.917 435.96C299.624 436.36 299.477 436.973 299.477 437.8V444.72C299.797 444.08 300.291 443.587 300.957 443.24C301.624 442.867 302.411 442.68 303.317 442.68C305.184 442.68 306.624 443.053 307.637 443.8C308.677 444.547 309.397 445.653 309.797 447.12C310.197 448.587 310.397 450.507 310.397 452.88C310.397 456.533 309.704 459.36 308.317 461.36C306.931 463.333 304.637 464.32 301.437 464.32ZM301.197 458C301.917 458 302.371 457.72 302.557 457.16C302.771 456.573 302.877 455.627 302.877 454.32V451.56C302.877 449.693 302.344 448.76 301.277 448.76C300.077 448.76 299.477 449.573 299.477 451.2V455.44C299.477 457.147 300.051 458 301.197 458Z" fill="white"/>
<path d="M291.117 470H310.877V472H291.117V470Z" fill="white"/>
<path d="M27.4372 50.32C25.0905 50.32 23.2372 49.92 21.8772 49.12C20.5172 48.32 19.5572 47.12 18.9972 45.52C18.4372 43.92 18.1572 41.84 18.1572 39.28V30C18.1572 26.4533 18.3705 23.6667 18.7972 21.64C19.2505 19.5867 20.1572 18.0267 21.5172 16.96C22.8772 15.8667 24.9172 15.32 27.6372 15.32C29.1305 15.32 30.5039 15.5733 31.7572 16.08C33.0105 16.5867 34.0105 17.3467 34.7572 18.36C35.5039 19.3733 35.8772 20.6 35.8772 22.04V25.76H29.2372V25.04C29.2372 23.8667 29.1305 22.96 28.9172 22.32C28.7305 21.68 28.2639 21.36 27.5172 21.36C26.7705 21.36 26.2372 21.56 25.9172 21.96C25.6239 22.36 25.4772 22.9733 25.4772 23.8V30.72C25.7972 30.08 26.2905 29.5867 26.9572 29.24C27.6239 28.8667 28.4105 28.68 29.3172 28.68C31.1839 28.68 32.6239 29.0533 33.6372 29.8C34.6772 30.5467 35.3972 31.6533 35.7972 33.12C36.1972 34.5867 36.3972 36.5067 36.3972 38.88C36.3972 42.5333 35.7039 45.36 34.3172 47.36C32.9305 49.3333 30.6372 50.32 27.4372 50.32ZM27.1972 44C27.9172 44 28.3705 43.72 28.5572 43.16C28.7705 42.5733 28.8772 41.6267 28.8772 40.32V37.56C28.8772 35.6933 28.3439 34.76 27.2772 34.76C26.0772 34.76 25.4772 35.5733 25.4772 37.2V41.44C25.4772 43.1467 26.0505 44 27.1972 44Z" fill="white"/>
<path d="M17.1172 56H36.8772V58H17.1172V56Z" fill="white"/>
</svg>
