<svg width="328" height="482" viewBox="0 0 328 482" fill="none" xmlns="http://www.w3.org/2000/svg">
<rect width="328" height="482" rx="10" fill="#18FF59"/>
<path d="M162.409 323.6C154.943 323.6 148.076 322.333 141.809 319.8C135.676 317.133 130.743 313.267 127.009 308.2C123.276 303.133 121.409 297 121.409 289.8V271.4H154.409V274.8C154.409 280.533 154.943 285.067 156.009 288.4C157.076 291.733 159.409 293.4 163.009 293.4C166.743 293.4 169.343 292.4 170.809 290.4C172.409 288.267 173.209 285.133 173.209 281V246.6C171.609 249.667 169.143 252.133 165.809 254C162.476 255.867 158.543 256.8 154.009 256.8C144.676 256.8 137.409 254.933 132.209 251.2C127.143 247.467 123.609 241.933 121.609 234.6C119.609 227.267 118.609 217.6 118.609 205.6C118.609 187.333 122.076 173.267 129.009 163.4C135.943 153.533 147.409 148.6 163.409 148.6C175.143 148.6 184.409 150.6 191.209 154.6C198.009 158.6 202.809 164.6 205.609 172.6C208.409 180.6 209.809 191 209.809 203.8V250.2C209.809 267.933 208.743 281.933 206.609 292.2C204.476 302.333 200.009 310.133 193.209 315.6C186.409 320.933 176.143 323.6 162.409 323.6ZM164.209 226.4C170.209 226.4 173.209 222.333 173.209 214.2V192.8C173.209 184.4 170.343 180.2 164.609 180.2C161.009 180.2 158.676 181.667 157.609 184.6C156.676 187.4 156.209 192 156.209 198.4V212.4C156.209 221.733 158.876 226.4 164.209 226.4Z" fill="white"/>
<path d="M113.609 352H214.409V362H113.609V352Z" fill="white"/>
<path d="M300.682 464.32C299.189 464.32 297.815 464.067 296.562 463.56C295.335 463.027 294.349 462.253 293.602 461.24C292.855 460.227 292.482 459 292.482 457.56V453.88H299.082V454.56C299.082 455.707 299.189 456.613 299.402 457.28C299.615 457.947 300.082 458.28 300.802 458.28C301.549 458.28 302.069 458.08 302.362 457.68C302.682 457.253 302.842 456.627 302.842 455.8V448.92C302.522 449.533 302.029 450.027 301.362 450.4C300.695 450.773 299.909 450.96 299.002 450.96C297.135 450.96 295.682 450.587 294.642 449.84C293.629 449.093 292.922 447.987 292.522 446.52C292.122 445.053 291.922 443.12 291.922 440.72C291.922 437.067 292.615 434.253 294.002 432.28C295.389 430.307 297.682 429.32 300.882 429.32C303.229 429.32 305.082 429.72 306.442 430.52C307.802 431.32 308.762 432.52 309.322 434.12C309.882 435.72 310.162 437.8 310.162 440.36V449.64C310.162 453.187 309.949 455.987 309.522 458.04C309.095 460.067 308.202 461.627 306.842 462.72C305.482 463.787 303.429 464.32 300.682 464.32ZM301.042 444.88C302.242 444.88 302.842 444.067 302.842 442.44V438.16C302.842 436.48 302.269 435.64 301.122 435.64C300.402 435.64 299.935 435.933 299.722 436.52C299.535 437.08 299.442 438 299.442 439.28V442.08C299.442 443.947 299.975 444.88 301.042 444.88Z" fill="white"/>
<path d="M290.922 470H311.082V472H290.922V470Z" fill="white"/>
<path d="M26.6819 50.32C25.1885 50.32 23.8152 50.0667 22.5619 49.56C21.3352 49.0267 20.3485 48.2533 19.6019 47.24C18.8552 46.2267 18.4819 45 18.4819 43.56V39.88H25.0819V40.56C25.0819 41.7067 25.1885 42.6133 25.4019 43.28C25.6152 43.9467 26.0819 44.28 26.8019 44.28C27.5485 44.28 28.0685 44.08 28.3619 43.68C28.6819 43.2533 28.8419 42.6267 28.8419 41.8V34.92C28.5219 35.5333 28.0285 36.0267 27.3619 36.4C26.6952 36.7733 25.9085 36.96 25.0019 36.96C23.1352 36.96 21.6819 36.5867 20.6419 35.84C19.6285 35.0933 18.9219 33.9867 18.5219 32.52C18.1219 31.0533 17.9219 29.12 17.9219 26.72C17.9219 23.0667 18.6152 20.2533 20.0019 18.28C21.3885 16.3067 23.6819 15.32 26.8819 15.32C29.2285 15.32 31.0819 15.72 32.4419 16.52C33.8019 17.32 34.7619 18.52 35.3219 20.12C35.8819 21.72 36.1619 23.8 36.1619 26.36V35.64C36.1619 39.1867 35.9485 41.9867 35.5219 44.04C35.0952 46.0667 34.2019 47.6267 32.8419 48.72C31.4819 49.7867 29.4285 50.32 26.6819 50.32ZM27.0419 30.88C28.2419 30.88 28.8419 30.0667 28.8419 28.44V24.16C28.8419 22.48 28.2685 21.64 27.1219 21.64C26.4019 21.64 25.9352 21.9333 25.7219 22.52C25.5352 23.08 25.4419 24 25.4419 25.28V28.08C25.4419 29.9467 25.9752 30.88 27.0419 30.88Z" fill="white"/>
<path d="M16.9219 56H37.0819V58H16.9219V56Z" fill="white"/>
</svg>
